# xmcd CD database file
#
# Track frame offsets:
#	150
#	11038
#	25820
#	45523
#	52278
#	63205
#	78205
#	93084
#	104004
#	115759
#	133936
#	146558
#	158816
#	169441
#	192850
#	205030
#	217411
#	226282
#	252386
#	267644
#	274431
#	282435
#	293384
#	308452
#
# Disc length: 4233 seconds
#
# Revision: 3
# Processed by: cddbd v1.5.1PL0 Copyright (c) Steve Scherf et al.
# Submitted via: CDex 1.50
#
DISCID=6a108718
DTITLE=Tony Tammaro - Tutto Tony Tammaro Vol. 2
DYEAR=1900
DGENRE=
TTITLE0='o Trerrote
TTITLE1=La Villeggiatura
TTITLE2=Serenata Cell
TTITLE3=La Mia Banda Suona Il Rock
TTITLE4=Se Potrei Avere Te
TTITLE5=Il Mozzarellista
TTITLE6=Bottana
TTITLE7=Pronto Marì
TTITLE8=Torregaveta
TTITLE9=Tango Dei Tamarri
TTITLE10=Dint' 'a Villa
TTITLE11=Casa Cascella
TTITLE12=Alla Fiera Dell'est
TTITLE13=Un'altra Guerra
TTITLE14='a Cinquecento
TTITLE15=L'animale
TTITLE16=Si Piglio 'o Posto
TTITLE17=Anni Sessanta
TTITLE18=Ballerino
TTITLE19=Nella Vecchia Fattoria
TTITLE20=Samba Du Gassu
TTITLE21=Puzzulan Rap
TTITLE22=Karaoke
TTITLE23=Il Rock Dei Tamarri
EXTD=
EXTT0=
EXTT1=
EXTT2=
EXTT3=
EXTT4=
EXTT5=
EXTT6=
EXTT7=
EXTT8=
EXTT9=
EXTT10=
EXTT11=
EXTT12=
EXTT13=
EXTT14=
EXTT15=
EXTT16=
EXTT17=
EXTT18=
EXTT19=
EXTT20=
EXTT21=
EXTT22=
EXTT23=
PLAYORDER=
